<svg fill="none" height="72" viewBox="0 0 73 72" width="73" xmlns="http://www.w3.org/2000/svg"><g fill="#ff7878"><path d="m22.9473 57.7373h-5.7321c-8.77696-.627-12.7175-7.3739-12.7175-13.3745s3.94058-12.7774 12.5683-13.3745c1.224-.1194 2.2987.8359 2.3883 2.0898.0895 1.224-.8358 2.2987-2.0896 2.3883-5.7917.4179-8.38893 4.7766-8.38893 8.9262 0 4.1497 2.59723 8.5084 8.38893 8.9263h5.5826c1.224 0 2.239 1.015 2.239 2.239 0 1.2241-1.015 2.1794-2.239 2.1794z"/><path d="m50.4414 57.7371c-.0597 0-.0895 0-.1492 0-1.224 0-2.3584-1.0151-2.3584-2.2391 0-1.2837.9553-2.239 2.2092-2.239 3.672 0 6.9559-1.2837 9.5233-3.5824 4.6572-4.0601 4.9557-9.9115 3.7019-14.0313-1.2539-4.0899-4.7468-8.777-10.837-9.5233-.9851-.1195-1.7614-.8658-1.9405-1.851-1.1942-7.1649-5.0452-12.1206-10.8965-13.9118-6.0305-1.8808-13.0761-.0299-17.4646 4.5676-4.2691 4.4482-5.2542 10.6877-2.7764 17.554.418 1.1643-.1789 2.448-1.3432 2.866-1.1643.4179-2.4481-.1792-2.8661-1.3435-3.0152-8.4187-1.6419-16.4792 3.7616-22.1514 5.523-5.79165 14.3895-8.09041 22.0022-5.76182 6.9858 2.14947 11.9116 7.91122 13.7028 15.91202 6.0902 1.3733 10.9862 6.0007 12.9267 12.3894 2.1196 6.9559.209 14.1208-5.0154 18.6586-3.3138 2.9853-7.6426 4.687-12.1804 4.687z"/><path d="m36.5001 66.5142c-6.0006 0-11.6131-3.1944-14.688-8.3591-.3284-.5075-.6568-1.1045-.9255-1.7613-1.015-2.1196-1.5524-4.5378-1.5524-7.0455 0-9.4636 7.7022-17.1659 17.1659-17.1659 9.4636 0 17.1659 7.7023 17.1659 17.1659 0 2.5376-.5373 4.9259-1.6121 7.135-.2388.5673-.5672 1.1643-.9254 1.7316-3.0152 5.105-8.6278 8.2993-14.6284 8.2993zm0-29.8537c-6.9858 0-12.6879 5.702-12.6879 12.6878 0 1.8509.3881 3.5824 1.1345 5.1647.2388.5075.4477.9255.6866 1.3135 2.2688 3.8512 6.4185 6.2096 10.8369 6.2096 4.4183 0 8.568-2.3584 10.807-6.1498.2687-.4478.5077-.8658.6868-1.2838.806-1.6419 1.194-3.3734 1.194-5.2244.0299-7.0156-5.6722-12.7176-12.6579-12.7176z"/><path d="m34.798 54.5427c-.5672 0-1.1343-.209-1.5822-.6568l-2.9556-2.9555c-.8658-.8658-.8658-2.2987 0-3.1645.8657-.8658 2.2987-.8658 3.1645 0l1.4331 1.433 4.7765-4.4184c.9255-.8359 2.3286-.7762 3.1645.1194s.7763 2.3286-.1194 3.1646l-6.3588 5.8811c-.4478.3881-.9852.5971-1.5226.5971z"/></g></svg>