<svg fill="none" height="114" viewBox="0 0 444 114" width="444" xmlns="http://www.w3.org/2000/svg"><g fill="#fff"><path d="m187.784 79h-25.5v-44.3125l10.875-.0313v34.2188h17.531zm19.359-23.1562c-1.292.7291-2.323 1.7083-3.094 2.9374-.771 1.2292-1.156 2.573-1.156 4.0313 0 2.2083.833 4.1146 2.5 5.7187 1.645 1.5834 3.593 2.375 5.843 2.375 2.271 0 4.229-.7916 5.875-2.375 1.667-1.6041 2.5-3.5104 2.5-5.7187 0-1.4583-.385-2.8021-1.156-4.0313-.771-1.2291-1.802-2.2083-3.094-2.9374-1.271-.7084-2.646-1.0626-4.125-1.0626-1.437 0-2.802.3542-4.093 1.0626zm12.5 23.1562v-.9375c-.667.2917-1.157.4896-1.469.5937-2.209.8542-4.521 1.2813-6.938 1.2813-3.187 0-6.198-.7396-9.031-2.2187-2.833-1.5-5.083-3.5417-6.75-6.125-1.687-2.625-2.531-5.5521-2.531-8.7813 0-2.4375.489-4.7083 1.469-6.8125.979-2.0833 2.322-3.8958 4.031-5.4375 1.687-1.5417 3.646-2.7187 5.875-3.5313 2.229-.8541 4.541-1.2812 6.937-1.2812 2.375 0 4.688.4167 6.938 1.25s4.208 2.0208 5.875 3.5625c1.75 1.5833 3.104 3.3958 4.062 5.4375.979 2.1042 1.469 4.375 1.469 6.8125l-.031 16.2813zm26.546-24.2188h-.563c-2.541.1042-3.812 1.875-3.812 5.3126v18.9062h-10v-18.9062c0-9.1042 4.604-13.8855 13.812-14.3438h.563c9.208.4583 13.812 5.2396 13.812 14.3438v18.9062h-10v-18.9062c0-3.4376-1.271-5.2084-3.812-5.3126zm25.827 8.125c0 2.2292.813 4.1355 2.438 5.7188 1.646 1.6042 3.541 2.4062 5.687 2.4062 2.167 0 4.073-.802 5.719-2.4062 1.625-1.5833 2.438-3.4896 2.438-5.7188 0-1.4166-.375-2.75-1.125-4s-1.75-2.2291-3-2.9374c-1.271-.7084-2.615-1.0626-4.032-1.0626-1.416 0-2.739.3542-3.968 1.0626-1.25.7083-2.261 1.6874-3.032 2.9374-.75 1.25-1.125 2.5834-1.125 4zm16.125-15.6562c5.979 2.5625 8.969 7.8438 8.969 15.8438l-.031 16.9374v2.3126c0 4.1041-1.459 7.6145-4.375 10.5312-1.354 1.3542-3.167 2.4271-5.438 3.2188-2.125.75-4.229 1.125-6.312 1.125h-1.75c-4.75-.1042-8.531-1.5521-11.344-4.3438-1.896-1.9375-3.042-3.6354-3.437-5.0938l9.531-5.5312c.104 1.6458.76 3.0417 1.969 4.1875 1.208 1.1458 2.645 1.7187 4.312 1.7187 1.313 0 2.51-.375 3.594-1.125 1.062-.7291 1.823-1.6666 2.281-2.8124l.031-.125.063-.1563c.041-.1458.083-.2917.125-.4375.083-.25.135-.5.156-.75v-.0938l.031-.0937.032-.125v-.1875h.031v-3.2812l-.25.125-.25.0937c-2.084.8542-4.271 1.2813-6.563 1.2813-3.041 0-5.885-.7605-8.531-2.2813-2.646-1.4792-4.771-3.5521-6.375-6.2187-1.604-2.6667-2.406-5.6355-2.406-8.9063 0-2.4792.469-4.7708 1.406-6.875.896-2.0833 2.167-3.9375 3.813-5.5625 1.604-1.5417 3.458-2.7396 5.562-3.5938 2.125-.8541 4.302-1.2812 6.531-1.2812 3.875 0 6.75.5 8.625 1.5zm50.561 18.2812 7.157 7.4063c-1.417 1.5417-3 2.8542-4.75 3.9375-3.334 2.0625-6.979 3.0938-10.938 3.0938-3.937 0-7.583-1.0313-10.937-3.0938-3.375-2.0833-6.042-4.8854-8-8.4062-1.959-3.5417-2.938-7.4271-2.938-11.6563 0-4.25.979-8.1458 2.938-11.6875 1.958-3.5208 4.625-6.3333 8-8.4375 3.354-2.0625 7-3.0937 10.937-3.0937 3.959 0 7.604 1.0312 10.938 3.0937 1.75 1.0833 3.312 2.375 4.687 3.875l-7.156 7.4063c-.896-1.0626-1.76-1.8646-2.594-2.4063-1.833-1.2292-3.791-1.8437-5.875-1.8437-2.083 0-4.041.6145-5.875 1.8437-1.791 1.2292-3.219 2.8542-4.281 4.875-1.042 2.0417-1.563 4.1667-1.563 6.375s.532 4.3333 1.594 6.375c1.063 2.0208 2.49 3.6458 4.281 4.875 1.792 1.2292 3.74 1.8437 5.844 1.8437s4.052-.6145 5.844-1.8437c.958-.6458 1.854-1.4896 2.687-2.5313zm21.453-9.6874c-1.292.7291-2.323 1.7083-3.094 2.9374-.771 1.2292-1.156 2.573-1.156 4.0313 0 2.2083.833 4.1146 2.5 5.7187 1.646 1.5834 3.594 2.375 5.844 2.375 2.271 0 4.229-.7916 5.875-2.375 1.666-1.6041 2.5-3.5104 2.5-5.7187 0-1.4583-.386-2.8021-1.157-4.0313-.77-1.2291-1.802-2.2083-3.093-2.9374-1.271-.7084-2.646-1.0626-4.125-1.0626-1.438 0-2.802.3542-4.094 1.0626zm12.5 23.1562v-.9375c-.667.2917-1.156.4896-1.469.5937-2.208.8542-4.521 1.2813-6.937 1.2813-3.188 0-6.198-.7396-9.032-2.2187-2.833-1.5-5.083-3.5417-6.75-6.125-1.687-2.625-2.531-5.5521-2.531-8.7813 0-2.4375.49-4.7083 1.469-6.8125.979-2.0833 2.323-3.8958 4.031-5.4375 1.688-1.5417 3.646-2.7187 5.875-3.5313 2.229-.8541 4.542-1.2812 6.938-1.2812 2.375 0 4.687.4167 6.937 1.25s4.209 2.0208 5.875 3.5625c1.75 1.5833 3.104 3.3958 4.063 5.4375.979 2.1042 1.468 4.375 1.468 6.8125l-.031 16.2813zm28.577-33.0938v9.4376c-.52-.3542-1.197-.5521-2.031-.5938h-.562c-2.542.1042-3.813 1.875-3.813 5.3125v18.9375h-10v-18.9375c0-9.1042 4.604-13.8854 13.813-14.3437h.562c.688.0208 1.365.0833 2.031.1874zm28.922 16.9376c0-1.4584-.386-2.7917-1.157-4-.77-1.2292-1.802-2.2084-3.093-2.9376-1.271-.7291-2.636-1.0937-4.094-1.0937s-2.833.3646-4.125 1.0937c-1.292.7292-2.323 1.7084-3.094 2.9376-.771 1.2083-1.156 2.5416-1.156 4 0 2.2291.833 4.1458 2.5 5.75 1.646 1.6041 3.604 2.4062 5.875 2.4062 2.25 0 4.198-.8021 5.844-2.4062 1.666-1.6042 2.5-3.5209 2.5-5.75zm9.968.2187c-.02 3.1667-.864 6.0313-2.531 8.5937-1.666 2.6042-3.916 4.6459-6.75 6.125-2.833 1.5-5.844 2.25-9.031 2.25-2.438 0-4.75-.427-6.938-1.2812-2.166-.7917-4.135-1.9896-5.906-3.5938-1.75-1.6041-3.104-3.4374-4.062-5.5-.959-2.0624-1.438-4.3333-1.438-6.8124 0-2.4167.49-4.6771 1.469-6.7813.958-2.0833 2.302-3.9063 4.031-5.4687 1.75-1.5834 3.719-2.7813 5.906-3.5938 2.25-.8125 4.563-1.2188 6.938-1.2188 2.354 0 4.656.4063 6.906 1.2188l.719.3125.719.3125v-13.1875l9.968.0313z"/><path d="m124.196 36.973h-37.1875v-22.9849c-.0049-3.7085-1.6544-7.26394-4.5869-9.88628-2.9324-2.62233-6.9083-4.09747108-11.0553-4.10182h-55.724c-4.1471.00434892-8.12295 1.47949-11.05538 4.10182-2.93243 2.62234-4.58201012 6.17778-4.58687331 9.88628v31.16c-.00759889 2.7661.91252431 5.4707 2.64149331 7.7643 5.51268 9.4897 30.93986 23.5189 31.21556 23.6627.5422.2892 1.1603.4451 1.7916.4519.565.0035 1.1221-.118 1.6219-.3536s.9267-.578 1.2427-.9968.5114-.901.5686-1.4037c.0573-.5026-.0253-1.0101-.2404-1.4773-1.8444-4.4466-3.2734-9.0222-4.2724-13.68h18.2608v23.0054c.0055 3.7065 1.656 7.2595 4.5889 9.8784 2.933 2.619 6.9085 4.0897 11.0533 4.0892h36.7969c-.999 4.6574-2.428 9.2334-4.272 13.6804-.215.467-.298.974-.241 1.477.058.503.253.985.569 1.404.316.418.743.761 1.243.996.5.236 1.057.357 1.622.354.631-.007 1.249-.163 1.791-.452.276-.144 25.703-14.1729 31.216-23.6627 1.729-2.2936 2.649-4.9982 2.641-7.7643v-31.16c-.005-3.7085-1.654-7.2639-4.587-9.8862-2.932-2.6224-6.908-4.0975-11.055-4.1018zm-80.2094 7.7232c-4.4261 2.2857-9.4768 3.4237-14.5856 3.2865h-.0689c-.9138 0-1.7902-.3246-2.4363-.9025-.6461-.5778-1.0091-1.3615-1.0091-2.1786 0-.8172.363-1.6008 1.0091-2.1787.6461-.5778 1.5225-.9024 2.4363-.9024h.0689c3.0411.0611 6.0647-.428 8.8892-1.4378-2.3121-2.4462-4.1308-5.2333-5.3749-8.2368-.1629-.3776-.241-.7802-.2298-1.1849.0111-.4046.1112-.8033.2946-1.1734.1835-.37.4466-.7041.7744-.9832s.7139-.4977 1.1362-.6433c.4223-.1457.8725-.2155 1.325-.2056s.8984.0995 1.3122.2635c.4137.164.7873.3994 1.0994.6925.3121.2932.5566.6384.7195 1.016 1.0221 2.5457 2.5992 4.8847 4.6398 6.8811 2.8137-3.0511 4.57-6.7705 5.0533-10.7016h-19.7078c-.9138 0-1.7902-.3246-2.4363-.9024s-1.0091-1.3615-1.0091-2.1787c0-.8171.363-1.6008 1.0091-2.1786s1.5225-.9024 2.4363-.9024h10.8186v-5.4022c0-.8172.363-1.6008 1.0092-2.1787.6461-.5778 1.5225-.9024 2.4362-.9024.9138 0 1.7902.3246 2.4363.9024.6462.5779 1.0092 1.3615 1.0092 2.1787v5.4022h10.7956c.9138 0 1.7902.3246 2.4363.9024.6462.5778 1.0092 1.3615 1.0092 2.1786 0 .8172-.363 1.6009-1.0092 2.1787-.6461.5778-1.5225.9024-2.4363.9024h-1.8605c-.5147 5.2187-2.7265 10.1885-6.3625 14.2962 2.2415.8523 4.6401 1.3259 7.0746 1.3968-1.6591 1.6766-2.8271 3.6951-3.3995 5.8746-3.2958-.4144-6.4617-1.428-9.3027-2.9784zm88.9604 37.4248c.019 1.5896-.528 3.1434-1.561 4.4368-.137.1732-.253.3591-.345.5546-2.71 4.6011-12.886 11.6054-20.604 16.4116 1.539-5.2992 2.32-9.7565 2.366-10.0441.076-.4369.046-.8834-.089-1.3088-.134-.4255-.371-.8198-.692-1.156-.326-.3362-.728-.6069-1.179-.7945s-.942-.2879-1.439-.2942h-40.9319c-2.3176.0017-4.5411-.8195-6.1821-2.2831-1.6409-1.4635-2.565-3.4498-2.5693-5.5223v-31.16c.0031-2.0747.9261-4.0637 2.5666-5.5307 1.6405-1.4671 3.8647-2.2925 6.1848-2.2952h55.7239c2.32.0027 4.544.8281 6.185 2.2952 1.64 1.467 2.563 3.456 2.566 5.5307zm-24.163-11.4842v-.0102l-9.163-20.481-.0183-.0329c-.0561-.1132-.1205-.223-.193-.3286-.0436-.0699-.0781-.1438-.1263-.2054-.0714-.0866-.1481-.1696-.2297-.2486-.0617-.0716-.1276-.1401-.1975-.2054-.0784-.064-.1604-.1244-.2458-.1807-.0859-.0731-.1764-.1417-.2711-.2054-.0781-.0473-.1676-.0822-.2503-.1233-.1128-.0601-.2293-.1143-.3492-.1622l-.039-.0185c-.085-.0308-.17-.0432-.255-.0658-.1158-.0363-.2339-.0665-.3537-.0903-.1125-.0175-.226-.0299-.34-.037-.1089-.0126-.2186-.0202-.3284-.0226-.1195 0-.2297.0144-.356.0246-.1264.0103-.2091.0144-.3124.0329-.126.025-.2503.0565-.3721.0945-.0804.0246-.1631.0349-.2435.0637l-.0391.0185c-.1192.0475-.2351.1017-.3468.1622-.085.0411-.1746.076-.2527.1233-.0781.0472-.1745.1253-.2618.1889-.0873.0637-.1769.1192-.255.189-.0781.0699-.124.1356-.1883.2054-.0822.0822-.1589.1686-.2297.2588-.0483.0637-.0827.1377-.1263.2054-.0719.1077-.1371.2188-.1953.3328l-.0184.0329-9.1602 20.4809v.0103l-4.6169 10.3195c-.1773.3772-.2689.7822-.2694 1.1914-.0004.4091.0903.8143.2668 1.1918s.4354.7197.7614 1.0068c.3261.2871.7128.5132 1.1376.6651.4249.152.8793.2268 1.3368.22s.9089-.095 1.3278-.2595c.419-.1645.7971-.4019 1.1124-.6985.3152-.2966.5612-.6463.7236-1.0288l3.728-8.3333h13.7108l3.728 8.3333c.162.3825.408.7322.723 1.0288.316.2966.694.534 1.113.6985s.87.2527 1.327.2595c.458.0068.912-.068 1.337-.22.425-.1519.812-.378 1.138-.6651s.585-.6293.761-1.0068c.177-.3775.267-.7827.267-1.1918 0-.4092-.092-.8142-.269-1.1914zm-16.465-1.8876 4.1001-9.1632 4.0979 9.1632z"/></g></svg>